<?xml version="1.0" encoding="UTF-8"?>
<svg id="_x3C_Layer_x3E_" xmlns="http://www.w3.org/2000/svg" version="1.1" viewBox="0 0 288 288">
  <!-- Generator: Adobe Illustrator 29.5.1, SVG Export Plug-In . SVG Version: 2.1.0 Build 141)  -->
  <defs>
    <style>
      .st0 {
        fill: #f8f6ef;
      }

      .st1 {
        fill: #ffd4bf;
      }
    </style>
  </defs>
  <path class="st1" d="M250.21,149.31c0,26.74-13.96,50.22-35,63.55,4.65-9.78,7.26-20.71,7.26-32.27,0-41.51-33.65-75.17-75.16-75.17-14.76,0-28.54,4.26-40.16,11.63,12.07-25.36,37.93-42.9,67.9-42.9,41.51,0,75.16,33.66,75.16,75.17Z"/>
  <g>
    <path class="st0" d="M75.15,210.04c-2.08,0-3.45,0-4.01.1.15-2.74.25-8.33.25-16.91v-7.36c0-1.88.05-7.36-.1-9.09.41.05,3.45.1,3.91.1,1.88,0,5.18,0,6.04-.1,3.1,6.4,9.85,17.92,12.84,23.91l-.1-5.53c-.1-4.72,0-14.88-.3-18.38.61.1,1.83.1,2.79.1,1.88,0,3.5,0,4.37-.1-.15,1.32-.2,11.68-.2,24.77v8.58c-.56-.05-3.6-.1-4.47-.1-2.13,0-4.26,0-5.18.15-1.78-3.55-8.93-16.91-13.1-25.59.15,14.57.25,23.1.36,25.54-.66-.1-1.83-.1-3.1-.1Z"/>
    <path class="st0" d="M115.11,178.47c0,2.18-1.47,3.86-3.91,3.86s-3.81-1.68-3.81-3.86,1.52-3.86,3.86-3.86,3.86,1.57,3.86,3.86ZM107.69,198.47v-4.82c0-2.89-.05-6.8-.15-7.92,2.18,0,5.79-.15,7.72-.35-.1,1.37-.15,6.04-.15,7.11v9.54c0,3.66.1,7.11.15,8.12-.66-.05-2.28-.1-3.91-.1-1.83,0-3.1.05-3.81.1.1-1.12.15-6.4.15-11.68Z"/>
    <path class="st0" d="M121.86,197.86v-11.78c0-5.99-.05-10.3-.15-11.73h1.83c3.1,0,5.08-.2,5.89-.3-.1,1.68-.15,6.55-.15,12.49v1.37c1.52-1.42,3.81-2.79,7.26-2.79,4.72,0,8.07,2.89,8.07,9.54v3.4c0,4.67.1,10.76.15,12.08-.56-.05-2.13-.1-3.86-.1-1.83,0-2.94,0-3.81.1.1-2.03.15-6.65.15-12.03v-2.84c0-2.89-1.27-4.62-4.01-4.62-1.47,0-3,.66-3.96,1.78v5.23c0,4.72.05,11.27.15,12.49-.71-.05-2.39-.1-4.01-.1-2.79,0-3.05.05-3.71.1.1-2.03.15-7.01.15-12.29Z"/>
    <path class="st0" d="M174.71,197.61c0,9.09-6.55,13.05-12.84,13.05-7.82,0-12.49-5.79-12.49-12.74s5.13-12.79,12.95-12.79,12.39,5.28,12.39,12.49ZM157.14,197.35c0,4.97,1.98,8.22,5.23,8.22s4.62-2.69,4.62-7.26c0-5.33-1.73-8.12-5.13-8.12s-4.72,3.15-4.72,7.16Z"/>
    <path class="st0" d="M179.73,197.86v-4.11c0-2.94,0-6.5-.2-8.02,2.23,0,5.94-.05,7.67-.41v2.79c1.57-1.52,3.81-3,7.26-3,4.82,0,8.02,3.15,8.02,9.54v3.4c0,4.67.05,10.66.15,12.08-.56-.05-2.69-.1-4.37-.1-1.83,0-2.59.05-3.3.1.15-2.03.15-6.8.15-12.18v-2.69c0-2.89-1.27-4.62-4.01-4.62-1.42,0-3.1.76-3.96,1.78v5.23c0,4.72.05,11.12.15,12.49-.71-.05-2.89-.1-4.01-.1-2.79,0-1.37,0-3.71.1.1-2.03.15-7.01.15-12.29Z"/>
  </g>
  <g>
    <path class="st0" d="M43.71,150.8v2.08c0,4.87.05,10.36.2,12.79-.56-.05-1.88-.1-3.45-.1-3.15,0-3.86,0-4.67.1.15-2.18.2-7.36.2-12.74v-7.82c0-6.24-.05-10.66-.2-12.79.71.1,2.08.1,3.5.1,2.89,0,3.81,0,4.62-.1-.15,1.68-.2,6.96-.2,11.73v.81h12.54v-.96c0-6.24-.05-9.75-.2-11.58,1.02.1,2.49.1,3.86.1,2.08,0,3.55,0,4.26-.1-.1,1.88-.2,6.6-.2,12.79v7.82c0,4.87.05,11.27.2,12.74-.66-.05-1.78-.1-3.45-.1-2.79,0-3.76-.05-4.67.1.15-2.18.2-8.83.2-12.79v-2.08h-12.54Z"/>
    <path class="st0" d="M81.73,154.6h-5.33c.3,4.21,3.55,6.09,7.51,6.09,2.54,0,4.31-.35,6.6-1.57-.36,1.73-.56,4.16-.61,5.43-2.49,1.27-5.03,1.52-8.22,1.52-7.67,0-12.69-4.42-12.69-12.59,0-6.9,4.62-12.84,12.39-12.84,7.21,0,10.66,4.92,10.66,10.71,0,1.07-.1,2.29-.25,2.89-1.73.25-4.72.36-10.05.36ZM80.01,150.04c2.03,0,4.16-.05,4.87-.15.1-2.08-1.07-4.57-4.16-4.57-2.89,0-4.16,2.49-4.37,4.72h3.66Z"/>
    <path class="st0" d="M97.42,154v-11.88c0-5.99,0-10.56-.15-12.23,2.64,0,5.28-.05,7.72-.3-.1,2.18-.15,5.28-.15,11.22v16.75c0,3.66.1,7.11.15,8.12-.66-.05-2.28-.1-3.91-.1-1.83,0-3.1.05-3.81.1.1-1.12.15-6.4.15-11.68Z"/>
    <path class="st0" d="M111.58,154v-11.88c0-5.99,0-10.56-.15-12.23,2.64,0,5.28-.05,7.72-.3-.1,2.18-.15,5.28-.15,11.22v16.75c0,3.66.1,7.11.15,8.12-.66-.05-2.28-.1-3.91-.1-1.83,0-3.1.05-3.81.1.1-1.12.15-6.4.15-11.68Z"/>
    <path class="st0" d="M149.1,153.13c0,9.09-6.55,13.05-12.84,13.05-7.82,0-12.49-5.79-12.49-12.74s5.13-12.79,12.95-12.79,12.39,5.28,12.39,12.49ZM131.54,152.88c0,4.97,1.98,8.22,5.23,8.22s4.62-2.69,4.62-7.26c0-5.33-1.73-8.12-5.13-8.12s-4.72,3.15-4.72,7.16Z"/>
  </g>
  <circle class="st1" cx="111.11" cy="177.53" r="5.41"/>
</svg>