<?xml version="1.0" encoding="UTF-8"?>
<svg id="_Layer_" data-name="&amp;lt;Layer&amp;gt;" xmlns="http://www.w3.org/2000/svg" viewBox="0 0 288 288">
  <defs>
    <style>
      .cls-1 {
        fill: #ffa983;
      }

      .cls-2 {
        letter-spacing: 0em;
      }

      .cls-3 {
        letter-spacing: 0em;
      }

      .cls-4 {
        fill: #4b6f75;
        font-family: Pelago-Bold, Pelago;
        font-size: 50.77px;
        font-weight: 700;
      }

      .cls-5 {
        letter-spacing: -.02em;
      }

      .cls-6 {
        letter-spacing: 0em;
      }

      .cls-7 {
        letter-spacing: 0em;
      }

      .cls-8 {
        letter-spacing: .01em;
      }
    </style>
  </defs>
  <path class="cls-1" d="M259.14,135.68c0,26.74-13.96,50.22-35,63.55,4.65-9.78,7.26-20.71,7.26-32.27,0-41.51-33.65-75.17-75.16-75.17-14.76,0-28.54,4.26-40.16,11.63,12.07-25.36,37.93-42.9,67.9-42.9,41.51,0,75.16,33.66,75.16,75.17Z"/>
  <text class="cls-4" transform="translate(76.05 196.41)"><tspan class="cls-7" x="0" y="0">N</tspan><tspan class="cls-3" x="37.26" y="0">i</tspan><tspan class="cls-6" x="51.43" y="0">h</tspan><tspan class="cls-2" x="80.52" y="0">on</tspan></text>
  <text class="cls-4" transform="translate(40.65 151.94)"><tspan class="cls-5" x="0" y="0">H</tspan><tspan class="cls-8" x="35.54" y="0">e</tspan><tspan class="cls-3" x="62.4" y="0">l</tspan><tspan class="cls-6" x="76.56" y="0">l</tspan><tspan class="cls-2" x="90.32" y="0">o</tspan></text>
  <circle class="cls-1" cx="120.44" cy="163.99" r="5.41"/>
</svg>