<?xml version="1.0" encoding="UTF-8"?>
<svg id="_Layer" xmlns="http://www.w3.org/2000/svg" version="1.1" viewBox="0 0 288 288">
  <!-- Generator: Adobe Illustrator 29.5.1, SVG Export Plug-In . SVG Version: 2.1.0 Build 141)  -->
  <defs>
    <style>
      .st0 {
        stroke-width: 3px;
      }

      .st0, .st1 {
        fill: #ffd4bf;
      }

      .st0, .st1, .st2, .st3 {
        stroke: #3f7076;
        stroke-miterlimit: 10;
      }

      .st1, .st2, .st3 {
        stroke-width: 2px;
      }

      .st2, .st4 {
        letter-spacing: 0em;
      }

      .st2, .st4, .st5, .st6, .st3 {
        isolation: isolate;
      }

      .st2, .st4, .st6, .st3 {
        font-family: Pelago-Bold, Pelago;
        font-size: 50.77px;
        font-weight: 700;
      }

      .st2, .st3 {
        fill: none;
      }

      .st4, .st6 {
        fill: #f8f6ef;
      }
    </style>
  </defs>
  <path class="st0" d="M252.5,143.34c0,26.74-13.96,50.22-35,63.55,4.65-9.78,7.26-20.71,7.26-32.27,0-41.51-33.65-75.17-75.16-75.17-14.76,0-28.54,4.26-40.16,11.63,12.07-25.37,37.93-42.91,67.9-42.91,41.51,0,75.16,33.66,75.16,75.17Z"/>
  <g class="st5">
    <text class="st6" transform="translate(69.4 204.07)"><tspan x="0" y="0">N</tspan></text>
    <text class="st3" transform="translate(69.4 204.07)"><tspan x="0" y="0">N</tspan></text>
    <text class="st6" transform="translate(106.67 204.07)"><tspan x="0" y="0">i</tspan></text>
    <text class="st3" transform="translate(106.67 204.07)"><tspan x="0" y="0">i</tspan></text>
    <text class="st6" transform="translate(120.83 204.07)"><tspan x="0" y="0">h</tspan></text>
    <text class="st3" transform="translate(120.83 204.07)"><tspan x="0" y="0">h</tspan></text>
    <text class="st6" transform="translate(149.92 204.07)"><tspan x="0" y="0">on</tspan></text>
    <text class="st3" transform="translate(149.92 204.07)"><tspan x="0" y="0">on</tspan></text>
  </g>
  <g class="st5">
    <text class="st6" transform="translate(34 159.6)"><tspan x="0" y="0">H</tspan></text>
    <text class="st3" transform="translate(34 159.6)"><tspan x="0" y="0">H</tspan></text>
    <text class="st4" transform="translate(69.54 159.6)"><tspan x="0" y="0">e</tspan></text>
    <text class="st2" transform="translate(69.54 159.6)"><tspan x="0" y="0">e</tspan></text>
    <text class="st6" transform="translate(96.4 159.6)"><tspan x="0" y="0">l</tspan></text>
    <text class="st3" transform="translate(96.4 159.6)"><tspan x="0" y="0">l</tspan></text>
    <text class="st6" transform="translate(110.56 159.6)"><tspan x="0" y="0">l</tspan></text>
    <text class="st3" transform="translate(110.56 159.6)"><tspan x="0" y="0">l</tspan></text>
    <text class="st6" transform="translate(124.32 159.6)"><tspan x="0" y="0">o</tspan></text>
    <text class="st3" transform="translate(124.32 159.6)"><tspan x="0" y="0">o</tspan></text>
  </g>
  <circle class="st1" cx="113.38" cy="171.56" r="5.41"/>
</svg>