<?xml version="1.0" encoding="UTF-8"?>
<svg id="_Layer" xmlns="http://www.w3.org/2000/svg" version="1.1" viewBox="0 0 288 288">
  <!-- Generator: Adobe Illustrator 29.5.1, SVG Export Plug-In . SVG Version: 2.1.0 Build 141)  -->
  <defs>
    <style>
      .st0 {
        stroke-width: 3px;
      }

      .st0, .st1 {
        stroke: #3f7076;
        stroke-miterlimit: 10;
      }

      .st0, .st2 {
        fill: #ffd4bf;
      }

      .st1 {
        fill: #f8f6ef;
        stroke-width: 2px;
      }

      .st3 {
        isolation: isolate;
      }
    </style>
  </defs>
  <path class="st0" d="M252.5,143.34c0,26.74-13.96,50.22-35,63.55,4.65-9.78,7.26-20.71,7.26-32.27,0-41.51-33.65-75.17-75.16-75.17-14.76,0-28.54,4.26-40.16,11.63,12.07-25.37,37.93-42.91,67.9-42.91,41.51,0,75.16,33.66,75.16,75.17Z"/>
  <g class="st3">
    <g class="st3">
      <g>
        <path class="st1" d="M57.24,159.63c.16-2.27.2-9.31.2-12.72v-1h-10.38v1c0,2.86.02,9.82.2,12.73l.08,1.26-1.25-.11c-.51-.05-1.78-.1-3.35-.1-3.06,0-3.79,0-4.54.09l-1.3.16.09-1.31c.17-2.38.2-8.2.2-12.67v-7.82c0-6.85-.06-10.77-.2-12.72l-.1-1.34,1.33.19c.63.09,2.01.09,3.35.09,2.8,0,3.74,0,4.49-.09l1.33-.17-.12,1.34c-.12,1.35-.2,5.59-.2,11.36h10.38c0-6.47-.06-9.66-.2-11.37l-.11-1.29,1.29.13c.96.1,2.44.1,3.75.1,1.94,0,3.48,0,4.11-.09l1.3-.19-.07,1.31c-.1,1.86-.2,6.51-.2,12.73v7.82c0,4.95.05,11.22.2,12.63l.13,1.29-1.29-.1c-.48-.04-1.55-.1-3.37-.1h-2.59c-.89,0-1.42,0-1.91.09l-1.35.22.1-1.37Z"/>
        <path class="st1" d="M83.96,161.19c-8.49,0-13.77-5.24-13.77-13.67s5.66-13.92,13.47-13.92c7.13,0,11.74,4.63,11.74,11.79,0,1-.09,2.37-.29,3.16l-.18.7-.71.11c-1.77.26-4.73.37-10.21.37h-4.07c.91,3.52,4.59,3.93,6.25,3.93,2.49,0,4.09-.38,6.09-1.45l2.03-1.08-.46,2.25c-.34,1.67-.54,4.06-.59,5.26l-.03.63-.56.29c-2.67,1.36-5.41,1.64-8.72,1.64ZM82.28,142.99c1.47,0,2.82-.03,3.73-.07-.12-.65-.4-1.23-.8-1.65-.53-.56-1.28-.84-2.22-.84-1.91,0-2.72,1.44-3.06,2.56h2.35Z"/>
        <path class="st1" d="M107.18,160.78c-.63-.05-2.23-.1-3.83-.1-2.12,0-3.31.07-3.73.1l-1.27.09.11-1.27c.09-.96.15-5.72.15-11.58v-11.88c0-5.87,0-10.51-.15-12.14l-.11-1.18h1.18c2.34,0,5.08-.04,7.6-.3l1.25-.13-.06,1.25c-.11,2.31-.15,5.54-.15,11.17v16.75c0,3.57.1,7.02.15,8.07l.06,1.22-1.22-.09Z"/>
        <path class="st1" d="M121.34,160.78c-.63-.05-2.23-.1-3.83-.1-2.12,0-3.31.07-3.73.1l-1.27.09.11-1.27c.09-.96.15-5.72.15-11.58v-11.88c0-5.87,0-10.51-.15-12.14l-.11-1.18h1.18c2.34,0,5.08-.04,7.6-.3l1.25-.13-.06,1.25c-.11,2.31-.15,5.54-.15,11.17v16.75c0,3.57.1,7.02.15,8.07l.06,1.22-1.22-.09Z"/>
        <path class="st1" d="M138.53,161.29c-7.86,0-13.57-5.81-13.57-13.82s5.9-13.87,14.03-13.87,13.47,5.58,13.47,13.57c0,9.76-6.99,14.13-13.92,14.13ZM138.53,140.83c-3.29,0-3.64,4.25-3.64,6.08,0,3.45,1.09,7.14,4.15,7.14,2.35,0,3.54-2.08,3.54-6.18,0-7.04-3.05-7.04-4.05-7.04Z"/>
      </g>
    </g>
  </g>
  <g class="st3">
    <g class="st3">
      <g>
        <path class="st1" d="M73.08,206.93c.16-2.93.25-8.91.25-16.85v-8.58c.01-2.23.02-6.38-.1-7.77l-.12-1.33,1.33.17c.34.04,3.18.09,3.78.09,1.66,0,5.11,0,5.91-.09l.76-.09.33.69c1.66,3.43,4.39,8.37,7.03,13.14,1.31,2.36,2.57,4.65,3.68,6.7l-.02-.97c-.04-1.62-.05-3.89-.06-6.3-.02-4.57-.05-9.74-.24-12l-.12-1.39,1.37.23c.52.09,1.73.09,2.61.09,1.77,0,3.44,0,4.24-.09l1.36-.16-.16,1.36c-.09.77-.2,5.68-.2,24.65v9.76l-1.18-.11c-.49-.04-3.44-.1-4.37-.1-1.96,0-4.17,0-5,.14l-.79.13-.36-.71c-.56-1.13-1.67-3.24-3.04-5.87-2.36-4.51-5.39-10.3-7.96-15.44.13,12.01.22,18.62.3,20.74l.05,1.31-1.3-.2c-.58-.09-1.77-.09-2.93-.09-1.87,0-3.35,0-3.82.08l-1.35.25.08-1.37Z"/>
        <path class="st1" d="M118.19,208.07c-.63-.05-2.23-.1-3.83-.1-2.12,0-3.31.07-3.73.1l-1.27.09.11-1.27c.09-.96.15-5.72.15-11.58v-4.82c0-3.04-.06-6.8-.15-7.82l-.11-1.18h1.18c2.03,0,5.65-.14,7.6-.35l1.29-.13-.1,1.29c-.09,1.28-.15,5.82-.15,7.03v9.54c0,3.57.1,7.02.15,8.07l.06,1.22-1.22-.09ZM114.21,180.25c-2.83,0-4.89-2.08-4.89-4.94s2.03-4.94,4.94-4.94,4.94,1.98,4.94,4.94-2.05,4.94-4.99,4.94Z"/>
        <path class="st1" d="M139.02,206.94c.1-1.91.15-6.28.15-11.98v-2.84c0-3.14-1.57-3.54-2.93-3.54-1.06,0-2.13.43-2.88,1.13v4.8c0,5.11.06,11.3.15,12.4l.1,1.26-1.26-.09c-.68-.05-2.34-.1-3.93-.1-2.43,0-2.9.04-3.4.08l-1.44.11.06-1.22c.09-1.86.15-6.55.15-12.23v-11.78c0-6.16-.05-10.3-.15-11.65l-.08-1.16h2.99c2.95,0,4.87-.19,5.75-.3l1.29-.16-.08,1.3c-.09,1.49-.15,5.79-.15,11.61,1.81-1.12,3.88-1.69,6.18-1.69,5.82,0,9.15,3.87,9.15,10.62v3.4c0,4.6.1,10.73.15,12.04l.05,1.23-1.22-.11c-.53-.05-2.08-.1-3.76-.1-1.8,0-2.88,0-3.68.09l-1.27.15.06-1.28Z"/>
        <path class="st1" d="M164.88,208.58c-7.86,0-13.57-5.81-13.57-13.82s5.9-13.87,14.03-13.87,13.47,5.58,13.47,13.57c0,9.76-6.99,14.13-13.92,14.13ZM164.88,188.12c-3.29,0-3.64,4.25-3.64,6.08,0,3.45,1.09,7.14,4.15,7.14,2.35,0,3.54-2.08,3.54-6.18,0-7.04-3.05-7.04-4.05-7.04Z"/>
        <path class="st1" d="M205.55,208.07c-.48-.04-2.54-.1-4.27-.1-1.84,0-2.57.05-3.22.1l-1.25.09.09-1.25c.15-1.99.15-6.68.15-12.1v-2.69c0-3.14-1.57-3.54-2.93-3.54-.97,0-2.16.48-2.88,1.13v4.79c0,5.11.06,11.15.15,12.41l.09,1.25-1.25-.09c-.69-.05-2.87-.1-3.93-.1q-1.82,0-2.25.03c-.24.02-.61.04-1.41.07l-1.18.05.06-1.18c.09-1.86.15-6.55.15-12.23v-4.11c0-2.86,0-6.43-.19-7.88l-.16-1.22h1.23c4.62,0,6.6-.21,7.45-.38l1.3-.27v1.86c1.84-1.22,3.88-1.82,6.18-1.82,5.7,0,9.1,3.97,9.1,10.62v3.4c0,4.8.05,10.64.15,12l.09,1.27-1.27-.12Z"/>
      </g>
    </g>
  </g>
  <circle class="st2" cx="114.14" cy="175.29" r="4.22"/>
</svg>