<?xml version="1.0" encoding="UTF-8"?>
<svg id="_Layer" xmlns="http://www.w3.org/2000/svg" version="1.1" viewBox="0 0 288 288">
  <!-- Generator: Adobe Illustrator 29.5.1, SVG Export Plug-In . SVG Version: 2.1.0 Build 141)  -->
  <defs>
    <style>
      .st0, .st1, .st2 {
        isolation: isolate;
      }

      .st0, .st2 {
        fill: #4b6f75;
        font-family: Pelago-Bold, Pelago;
        font-size: 50.77px;
        font-weight: 700;
      }

      .st2 {
        letter-spacing: 0em;
      }

      .st3 {
        stroke-width: 2px;
      }

      .st3, .st4 {
        fill: #ffa983;
        stroke: #4b6f75;
        stroke-miterlimit: 10;
      }

      .st4 {
        stroke-width: 3px;
      }
    </style>
  </defs>
  <g class="st1">
    <text class="st0" transform="translate(70.16 204.81)"><tspan x="0" y="0">N</tspan></text>
    <text class="st0" transform="translate(107.42 204.81)"><tspan x="0" y="0">i</tspan></text>
    <text class="st0" transform="translate(121.59 204.81)"><tspan x="0" y="0">h</tspan></text>
    <text class="st0" transform="translate(150.68 204.81)"><tspan x="0" y="0">on</tspan></text>
  </g>
  <g class="st1">
    <text class="st0" transform="translate(34.76 160.34)"><tspan x="0" y="0">H</tspan></text>
    <text class="st2" transform="translate(70.3 160.34)"><tspan x="0" y="0">e</tspan></text>
    <text class="st0" transform="translate(97.16 160.34)"><tspan x="0" y="0">l</tspan></text>
    <text class="st0" transform="translate(111.32 160.34)"><tspan x="0" y="0">l</tspan></text>
    <text class="st0" transform="translate(125.08 160.34)"><tspan x="0" y="0">o</tspan></text>
  </g>
  <circle class="st3" cx="114.55" cy="172.39" r="5.41"/>
  <path class="st4" d="M253.25,144.08c0,26.74-13.96,50.22-35,63.55,4.65-9.78,7.26-20.71,7.26-32.27,0-41.51-33.65-75.17-75.16-75.17-14.76,0-28.54,4.26-40.16,11.63,12.07-25.36,37.93-42.9,67.9-42.9,41.51,0,75.16,33.66,75.16,75.17h0Z"/>
</svg>