<?xml version="1.0" encoding="UTF-8"?>
<svg xmlns="http://www.w3.org/2000/svg" version="1.1" viewBox="0 0 1414.55 473.77">
  <defs>
    <style>
      .cls-1 {
        font-family: Monarcha-SemiBold, Monarcha;
        font-size: 149.43px;
        font-weight: 600;
      }

      .cls-1, .cls-2, .cls-3 {
        isolation: isolate;
      }

      .cls-1, .cls-2, .cls-4 {
        fill: #505e4a;
      }

      .cls-2 {
        font-family: TektonPro-Regular, 'Tekton Pro';
        font-size: 106.62px;
      }

      .cls-5 {
        fill: #4a5c42;
      }

      .cls-6 {
        fill: #c6a693;
      }

      .cls-7 {
        fill: #b87960;
      }

      .cls-8 {
        fill: #74826b;
      }

      .cls-9 {
        fill: #463c26;
      }

      .cls-10 {
        stroke: #a37754;
      }

      .cls-10, .cls-11 {
        stroke-width: 7.97px;
      }

      .cls-10, .cls-11, .cls-12 {
        fill: none;
        stroke-linecap: round;
        stroke-miterlimit: 10;
      }

      .cls-11, .cls-12 {
        stroke: #c5baa8;
      }

      .cls-12 {
        stroke-width: 9.97px;
      }
    </style>
  </defs>
  <!-- Generator: Adobe Illustrator 28.7.5, SVG Export Plug-In . SVG Version: 1.2.0 Build 176)  -->
  <g>
    <g id="Layer_1">
      <g>
        <path class="cls-4" d="M196.06,267.61h183.88c6.11,0,11.08,4.96,11.08,11.08v12.75c0,53.34-43.3,96.64-96.64,96.64h0c-60.37,0-109.39-49.02-109.39-109.39h0c0-6.11,4.96-11.08,11.08-11.08h-.01Z"/>
        <path class="cls-4" d="M407.15,293.15v-21.08s.5-3.93,9.75-3.18,56.28,12.26,34.77,57.03c-16.51,34.36-52.25,31.1-68.68,31.38-3.81.07-5.56-1.81-3.71-5.14,3.45-6.21,11.93-19.54,16.03-20.64,6.5-1.75,37.71,2.29,38.6-21.39.71-18.9-26.76-16.98-26.76-16.98Z"/>
        <path class="cls-4" d="M330.81,438.71l-10.82,1c-17.32,1.6-34.75,1.72-52.09.34l-16.91-1.34c-3.92,0-37.22-5.67-65.24-13.29-17.97-4.89-34.75-13.42-49.49-24.79l-5.47-4.22c-6.59-4.04-4.01-14.44,3.72-14.57h.17l73.39-1.09c10.23-.15,20.42,1.55,30.04,5.06,51.75,18.84,59.69,18.88,107.42.13,9.12-3.58,18.86-5.35,28.65-5.21l79.32,1.11h.17c7.71.13,10.36,9.71,3.17,14.31l-27.12,16.08c-4.77,2.53-23.44,10.26-28.57,11.93-24.64,8.04-63.1,13.68-70.34,14.56h0Z"/>
        <path class="cls-7" d="M248.75,258.89l-84.35,1.3c-12.12-.27-21.46-2.29-38.99-7.11l-25.29-10.8c-11.09-5.93-19.41-11.43-27.49-20.39l-8.71-11.93c-5.49-7.52-8.18-14.89-11.48-23.59-1.78-4.68-3.1-11.54-3.18-12.52-1.43-16.23,2.81-30.46,15.25-38.64,1.44-.95,3.96-2.03,7.02-3.13,11.37-4.09,23.4-6,35.48-6h9.6c16.8,2.21,26.85,5.46,42.3,14.68,2.77,1.65,5.44,3.49,8.01,5.44l26.97,20.46c12.55,10.38,22.11,22.15,32.36,36.33.94,1.31,1.83,2.67,2.65,4.05l21.22,35.71c3.89,7.28,6.89,16.13-1.37,16.13h0Z"/>
        <path class="cls-12" d="M94.51,172.22s81.41,26.71,125.51,66.92"/>
        <path class="cls-5" d="M327.25,257.36l84.35,1.3c12.12-.27,21.46-2.29,38.99-7.11l25.29-10.8c11.09-5.93,19.41-11.43,27.49-20.39l8.71-11.93c5.49-7.52,8.18-14.89,11.48-23.59,1.78-4.68,3.1-11.54,3.18-12.52,1.43-16.23-2.81-30.46-15.25-38.64-1.44-.95-3.96-2.03-7.02-3.13-11.37-4.09-23.4-6-35.48-6h-9.6c-16.8,2.21-26.85,5.46-42.3,14.68-2.77,1.65-5.44,3.49-8.01,5.44l-26.97,20.46c-12.55,10.38-22.11,22.15-32.36,36.33-.94,1.31-1.83,2.67-2.65,4.05l-21.22,35.71c-3.89,7.28-6.89,16.13,1.37,16.13h0Z"/>
        <path class="cls-12" d="M481.49,170.69s-81.41,26.71-125.51,66.92"/>
        <circle class="cls-9" cx="117.27" cy="92.14" r="11.73"/>
        <circle class="cls-9" cx="288" cy="41.42" r="11.73"/>
        <circle class="cls-9" cx="452.13" cy="92.14" r="11.73"/>
        <path class="cls-6" d="M305.79,249.2l64.71-54.12c9-8.13,14.75-15.75,24.87-30.86l12.09-24.7c4.52-11.73,7.23-21.33,7.5-33.39l-1.19-14.72c-.75-9.28-3.53-16.62-6.72-25.36-1.71-4.71-5.19-10.76-5.77-11.56-9.52-13.22-22.03-21.23-36.78-19.29-1.71.22-4.33,1.05-7.36,2.21-11.27,4.33-21.64,10.74-30.78,18.63l-7.27,6.27c-11.27,12.65-16.76,21.67-22.44,38.75-1.02,3.06-1.84,6.19-2.51,9.35l-7.06,33.11c-2.72,16.05-2.27,31.21-.77,48.65.14,1.6.36,3.21.64,4.8l7.26,40.9c1.81,8.05,5.32,16.71,11.57,11.32h0Z"/>
        <path class="cls-8" d="M267.79,249.2l-64.71-54.12c-9-8.13-14.75-15.75-24.87-30.86l-12.09-24.7c-4.52-11.73-7.23-21.33-7.5-33.39l1.19-14.72c.75-9.28,3.53-16.62,6.72-25.36,1.71-4.71,5.19-10.76,5.77-11.56,9.52-13.22,22.03-21.23,36.78-19.29,1.71.22,4.33,1.05,7.36,2.21,11.27,4.33,21.64,10.74,30.78,18.63l7.27,6.27c11.27,12.65,16.76,21.67,22.44,38.75,1.02,3.06,1.84,6.19,2.51,9.35l7.06,33.11c2.72,16.05,2.27,31.21.77,48.65-.14,1.6-.36,3.21-.64,4.8l-7.26,40.9c-1.81,8.05-5.32,16.71-11.57,11.32h0Z"/>
        <path class="cls-10" d="M310.33,182.88s8.95-55.61,35.6-48.02c29.82,8.49-5.18,58.28-5.18,58.28"/>
        <path class="cls-10" d="M296.84,163.64s18.85-76.51,61.12-63.8c55.86,16.8,2.22,90.23,2.22,90.23"/>
        <path class="cls-11" d="M237.95,200.03s-33-45.65-8.79-59.13c27.09-15.08,37.55,44.88,37.55,44.88"/>
        <path class="cls-11" d="M214.81,195.96s-40.77-67.43-1.9-88.33c51.37-27.62,65.37,62.23,65.37,62.23"/>
      </g>
      <g class="cls-3">
        <text class="cls-1" transform="translate(596.03 261.73)"><tspan x="0" y="0">Pan Bloom</tspan></text>
      </g>
      <g class="cls-3">
        <text class="cls-2" transform="translate(896.51 372.71)"><tspan x="0" y="0">café</tspan></text>
      </g>
    </g>
  </g>
</svg>